<?xml version="1.0" encoding="UTF-8"?>
<svg id="Layer_2" data-name="Layer 2" xmlns="http://www.w3.org/2000/svg" viewBox="0 0 820 740.57">
  <defs>
    <style>
      .cls-1 {
        stroke: #000;
        stroke-miterlimit: 10;
        stroke-width: 15px;
      }
    </style>
  </defs>
  <g id="Layer_1-2" data-name="Layer 1">
    <path class="cls-1" d="M277.85,14.72c-22.25,4.45-47.17,11.27-63.78,17.21-21.66,7.71-37.08,13.94-41.53,16.61-2.37,1.48-6.53,3.56-8.9,4.45s-8.31,3.56-13.35,5.64c-4.75,2.37-14.24,6.23-20.77,8.9-27.29,10.98-57.26,32.63-73.57,52.81C26.28,157.11,12.63,195.98,10.26,249.97c-1.78,42.13,5.34,66.45,29.67,100.27,11.87,16.61,42.13,42.13,49.54,42.13s7.12,1.78,10.38,4.15c3.26,2.08,13.05,4.75,21.66,5.64,19.28,2.37,21.36,3.56,21.36,12.76s4.15,16.02,9.2,27c10.98,24.03,44.2,58.44,64.97,68.23,40.05,18.39,77.43,24.03,121.63,18.69l29.37-3.56,17.21,13.35c21.95,16.91,44.2,38.27,58.15,55.77,9.49,11.87,10.98,15.72,10.98,29.07s6.82,27,22.55,27,21.66-8.9,21.95-21.06c0-9.49-11.57-23.44-19.28-23.44s-9.79-5.64-16.32-15.72c-14.54-21.66-31.15-38.86-52.51-54.88-19.88-14.54-22.55-18.39-12.46-18.39s34.71-8.6,57.55-19.28c11.27-5.64,21.36-9.49,22.25-8.9,1.78,1.19,7.12,17.5,16.61,50.43,2.67,9.79,6.82,23.14,8.9,29.67,2.37,6.82,4.15,15.72,4.15,19.88s1.48,11.57,3.26,16.32c1.78,4.45,4.45,18.39,5.64,30.56,1.48,12.16,3.56,29.67,4.75,38.57,1.78,15.13,1.19,16.91-5.93,23.44-9.49,8.9-9.49,10.68,0,23.14,6.53,8.6,9.2,9.79,20.47,9.79s13.65-1.19,17.8-8.9c6.23-11.87,5.64-15.72-3.26-24.62-8.9-8.9-8.6-12.76-12.16-36.79-2.08-16.02-6.23-38.27-8.9-49.25-2.67-11.87-3.56-21.36-2.08-22.84s11.87-1.48,24.92.59c27.59,3.86,78.62,1.19,95.53-5.34,40.35-14.83,58.15-34.71,68.83-76.54,3.86-14.54,7.71-20.47,24.92-38.57,11.27-11.87,24.92-29.37,30.56-39.16,5.64-9.49,11.57-20.17,13.65-23.44,3.86-6.53,4.45-7.42,9.49-22.25,14.24-40.64,18.99-102.05,10.68-140.92-2.67-13.05-6.82-27.29-9.2-31.74-2.37-4.15-4.15-10.38-4.15-13.65s-1.19-6.82-2.67-7.71c-1.48-1.19-5.64-8.01-9.49-16.02-8.9-18.69-37.97-56.66-53.7-70.31-20.47-17.5-71.79-48.95-79.8-48.95s-5.93-1.48-10.68-3.56c-28.78-11.87-82.77-17.21-113.62-11.27-15.13,2.97-29.37.3-46.58-8.6-6.23-2.97-24.03-7.42-61.71-15.43-32.63-6.82-104.43-7.12-136.47-.59h0ZM414.32,33.41c32.04,6.53,55.48,13.35,55.18,16.32-.3,1.48-3.26,3.86-7.12,5.04-25.22,7.71-56.66,24.62-67.94,36.49-8.9,9.49-16.91,9.2-37.08-1.48-9.2-5.04-17.8-8.9-19.28-8.9s-7.12-1.78-12.16-3.86c-24.62-10.68-59.04-18.69-91.97-21.95-11.27-.89-19.58-2.97-18.99-4.75,1.19-3.56,22.84-9.79,48.06-13.94,9.79-1.78,24.62-4.15,32.63-5.64,19.28-3.86,95.82-2.08,118.67,2.67h0ZM592.31,57.43c6.53,1.78,17.5,4.15,24.33,5.64,6.82,1.48,14.83,3.86,17.8,5.34s12.16,5.93,20.17,9.79c30.26,13.94,68.53,44.8,90.19,73.28,10.09,13.05,29.96,49.84,29.96,55.48s1.78,7.71,4.15,11.27c17.21,27,17.21,116.59,0,151.3-2.37,4.75-4.15,10.38-4.15,12.76,0,4.15-7.71,19.28-18.1,35.3-2.97,4.75-6.53,10.98-7.71,13.35s-3.56,6.23-5.64,8.01c-2.08,2.08-6.53,8.31-10.09,14.24-10.09,16.32-13.35,13.35-17.5-15.72-2.08-14.24-5.64-30.26-8.01-35.6-5.34-12.46-5.34-25.81.3-34.41,4.15-6.23,3.86-7.71-2.37-16.91-11.87-17.5-35.3-12.76-39.46,8.31-1.78,8.9,7.71,24.62,14.54,24.62s21.36,60.22,21.36,90.48c0,45.69-18.69,75.06-57.26,90.19-13.65,5.34-21.95,6.23-66.75,6.23s-52.81-1.19-54.88-2.37c-2.08-1.48-5.04-9.2-6.53-17.21-4.15-22.84-9.2-40.05-15.43-53.99-6.82-14.54-5.64-20.17,4.75-24.33,9.49-3.56,62.89-38.57,73.28-47.76,4.15-3.86,14.24-12.76,22.25-19.28,29.96-25.22,97.9-103.54,112.73-130.24,1.78-2.97,7.12-6.82,11.87-8.31,20.47-6.53,27.59-23.14,15.72-37.38-4.15-5.34-8.6-7.12-17.5-7.12-16.91,0-20.77,4.45-20.77,24.33s-1.48,18.39-7.42,25.51c-4.15,4.75-16.32,20.47-26.7,34.71-10.68,14.54-32.93,39.46-49.84,56.07-29.07,28.78-84.55,73.87-90.48,73.87s-3.56.89-4.15,2.08c-.3,1.48-7.42,6.82-15.43,12.46-16.32,11.27-22.25,10.38-26.7-4.45-3.86-12.46-8.31-22.84-24.92-56.07-17.5-35.3-21.95-43.02-38.27-66.45-6.82-10.09-11.87-19.58-10.98-21.66.59-2.08,6.53-7.12,13.05-10.98,6.23-3.86,14.83-10.38,19.28-14.24,5.64-5.34,11.57-7.42,22.25-8.01,8.01-.3,15.43-1.48,16.61-2.37.89-1.19,2.67-8.01,3.26-15.13,1.48-11.57.59-13.94-6.82-21.06-4.75-4.15-10.68-7.71-13.35-7.71-8.01,0-23.44,16.32-23.44,24.92s-4.75,11.27-20.47,24.03c-11.57,8.9-21.95,16.32-23.14,16.32s-5.64-5.04-9.79-10.98c-7.42-10.68-43.91-48.65-61.11-63.19-14.54-12.46-49.25-34.12-69.42-43.61-36.49-16.91-51.62-20.17-91.97-20.17s-54.29,3.86-77.73,16.91c-11.87,6.82-40.94,29.37-40.94,32.04s-2.08,3.26-4.45,4.15c-14.24,5.34-1.48-27.59,24.03-62.6,10.38-13.94,42.42-42.42,48.06-42.42s3.56-1.19,3.56-2.67,3.56-4.15,8.31-5.64c50.43-18.99,47.76-18.39,83.07-18.39s66.16,5.04,86.03,13.65c5.34,2.37,12.16,4.15,14.83,4.15s8.01,2.08,11.27,4.45c2.97,2.37,7.42,4.45,9.2,4.45,4.45,0,60.82,27.59,73.57,35.6,5.04,3.26,10.98,6.82,13.35,8.01,3.86,1.78,35.9,24.92,45.98,32.93,1.78,1.19,7.71,5.64,13.35,9.49,13.35,9.49,59.33,47.76,79.8,66.75,38.57,35.3,45.39,43.02,43.91,49.54-2.67,10.09,8.31,23.14,19.58,23.14s22.84-7.12,22.84-21.95-1.48-13.94-7.42-17.8c-3.86-2.67-11.27-4.75-16.02-4.75s-10.98-2.67-15.72-8.31c-7.12-8.6-31.74-31.45-67.05-62.6-23.73-21.06-75.95-60.52-94.04-71.5-6.53-3.86-12.46-7.71-13.35-8.9-.89-.89-7.12-4.15-13.94-7.42-7.12-3.26-12.76-7.12-12.76-8.6,0-4.45,9.49-13.65,13.94-13.65s3.86-.89,3.86-2.37,15.72-10.09,54.29-29.07c4.75-2.37,11.27-4.15,14.83-4.15s8.31-1.19,10.68-2.67c2.67-1.78,7.42-.59,13.35,2.97,5.04,2.97,11.27,6.53,13.65,7.42,10.98,5.04,52.81,31.45,61.41,38.86,5.04,4.45,19.28,16.91,31.74,27.59,12.16,10.68,21.66,20.47,21.36,22.25-.59,1.48-1.78,5.64-2.97,9.2-2.97,9.2,10.09,21.95,22.55,21.95s15.13-2.08,21.06-13.35c3.86-7.71,3.86-9.79.3-16.91-4.75-8.9-14.24-15.13-24.03-15.72-3.86,0-13.65-7.71-23.73-18.1-24.92-25.22-51.62-45.09-80.4-59.33-8.6-4.15-14.83-8.9-13.94-10.38,2.37-3.56,38.57-3.26,53.4.59h0ZM211.4,174.62c27,7.71,50.73,19.28,79.8,38.57,18.99,12.46,86.63,77.73,88.41,84.85.89,4.45-45.69,33.23-84.55,52.21-29.07,14.24-52.81,24.33-57.55,24.33s-9.2,1.78-16.02,4.15c-15.43,5.34-51.92,11.57-59.33,10.38-7.71-1.48-9.2-19.58-4.15-52.51,3.26-21.95,4.45-25.22,11.87-29.37,4.75-2.67,9.2-8.6,10.09-12.76,5.34-24.62-24.03-39.16-40.35-19.88-6.82,8.31-7.12,15.13-.59,26.11,4.45,7.42,4.45,10.38,1.19,27.29-2.08,10.38-3.56,26.11-3.26,35.01.89,25.22,1.19,24.33-10.38,22.25-21.06-4.15-51.03-21.36-65.86-38.27-26.4-29.96-41.83-91.97-28.18-112.73,13.94-20.77,50.43-46.87,82.18-58.74,19.58-7.12,73.87-7.71,96.71-.89h0ZM393.85,317.61c8.6,5.93,78.32,138.25,78.32,148.63s-4.45,7.12-12.46,10.68c-16.02,6.53-21.66,8.9-36.49,15.13-6.53,2.67-17.21,5.93-23.73,7.42-6.53,1.19-17.8,3.86-25.22,5.93-7.71,2.08-32.63,3.86-59.33,3.86-48.36.3-61.71-2.37-90.19-16.91-19.28-10.09-44.5-35.9-55.18-56.37-10.68-21.06-10.98-30.56-.59-29.67,9.2,1.19,56.07-6.53,68.83-10.98,26.11-9.49,35.9-13.65,62.3-26.11,15.43-7.42,33.52-16.91,40.05-21.06,16.91-10.68,23.14-14.54,27.89-16.91,2.08-1.19,7.42-5.34,11.57-8.9,8.01-7.71,9.49-8.01,14.24-4.75h0Z"/>
  </g>
</svg>